<?xml version="1.0" encoding="utf-8"?>
<!-- Svg Vector Icons : http://www.onlinewebfonts.com/icon -->
<!DOCTYPE svg PUBLIC "-//W3C//DTD SVG 1.1//EN" "http://www.w3.org/Graphics/SVG/1.1/DTD/svg11.dtd">
<svg version="1.1" xmlns="http://www.w3.org/2000/svg" xmlns:xlink="http://www.w3.org/1999/xlink" x="0px" y="0px" viewBox="0 0 256 256" enable-background="new 0 0 256 256" xml:space="preserve">
<metadata> Svg Vector Icons : http://www.onlinewebfonts.com/icon </metadata>
<g><g><g><path fill="#000000" d="M124.9,10.6c-1.3,0.5-2.3,0.9-2.4,0.9c-0.2,0-81.3,99.1-83.4,101.9c-1.4,1.9-1.7,2.8-1.7,5.5c0,2.6,0.3,3.6,1.5,5.2c3,3.9,8.5,4.9,12.2,2.3c0.9-0.6,16.4-19.3,34.5-41.4l33-40.3l0.3,97.8l0.3,97.8l1.5,2c3.9,5.1,10.7,5.1,14.5,0l1.5-2l0.3-97.8l0.3-97.8l33,40.3c18.1,22.2,33.7,40.8,34.5,41.4c3.8,2.7,9.2,1.6,12.2-2.3c1.3-1.6,1.5-2.6,1.5-5.2c0-2.7-0.3-3.6-1.7-5.5c-8.1-10.7-83.4-101.8-84.5-102.3C129.9,9.8,127.2,9.7,124.9,10.6z"/></g></g></g>
</svg>