<?xml version="1.0" encoding="UTF-8"?>
<svg xmlns="http://www.w3.org/2000/svg" xmlns:xlink="http://www.w3.org/1999/xlink"   viewBox="0 0 192 192" version="1.1">
<g>
<path style="fill-rule:nonzero;fill-opacity:1;stroke-width:5;stroke-linecap:butt;stroke-linejoin:miter;stroke:rgb(0%,0%,0%);stroke-opacity:1;stroke-miterlimit:4;" fill="#ffffff" d="M 199 115.25 C 199 147.145833 172.473958 173 139.75 173 C 107.026042 173 80.5 147.145833 80.5 115.25 C 80.5 83.354167 107.026042 57.5 139.75 57.5 C 172.473958 57.5 199 83.354167 199 115.25 " transform="matrix(0.75,0,0,0.75,0,0)"/>
<path style="fill-rule:nonzero;fill-opacity:1;stroke-width:5;stroke-linecap:butt;stroke-linejoin:miter;stroke:rgb(0%,0%,0%);stroke-opacity:1;stroke-miterlimit:4;" fill="#ffffff" d="M 194.25 115.25 C 194.25 144.661458 169.739583 168.5 139.5 168.5 C 109.260417 168.5 84.75 144.661458 84.75 115.25 C 84.75 85.838542 109.260417 62 139.5 62 C 169.739583 62 194.25 85.838542 194.25 115.25 " transform="matrix(0.75,0,0,0.75,0,0)"/>
</g>
</svg>
