<?xml version="1.0" encoding="utf-8"?>
<!-- Svg Vector Icons : http://www.onlinewebfonts.com/icon -->
<!DOCTYPE svg PUBLIC "-//W3C//DTD SVG 1.1//EN" "http://www.w3.org/Graphics/SVG/1.1/DTD/svg11.dtd">
<svg version="1.1" xmlns="http://www.w3.org/2000/svg" xmlns:xlink="http://www.w3.org/1999/xlink" x="0px" y="0px" viewBox="0 0 256 256" enable-background="new 0 0 256 256" xml:space="preserve">
<metadata> Svg Vector Icons : http://www.onlinewebfonts.com/icon </metadata>
<g><g><g><path fill="#000000" d="M28.8,57.6C21.6,59.3,15.3,64.3,12,71l-2,4v5.7c0,5,0.1,6.1,1.2,8.7c0.7,1.6,1.9,4,2.8,5.2c0.9,1.2,25.2,24.7,54.1,52.2l52.4,50l3.8,1.2c4.6,1.5,7.1,1.3,10.3-0.6c3.2-1.9,105.9-100.8,107.9-103.8c2.5-3.9,3.5-7.6,3.5-12.5c0-7.1-2.2-12-7.4-17.1c-8.1-7.8-20.9-9-30.4-3.1c-1.3,0.8-18.1,16.7-37.4,35.3c-38.5,37.1-37.8,36.5-42.7,35.9c-6-0.6-4.7,0.5-42.9-36.1C66,77.5,49.1,61.7,47.8,60.9C42.6,57.6,34.8,56.3,28.8,57.6z"/></g></g></g>
</svg>