<?xml version="1.0" encoding="utf-8"?>
<!-- Svg Vector Icons : http://www.onlinewebfonts.com/icon -->
<!DOCTYPE svg PUBLIC "-//W3C//DTD SVG 1.1//EN" "http://www.w3.org/Graphics/SVG/1.1/DTD/svg11.dtd">
<svg version="1.1" xmlns="http://www.w3.org/2000/svg" xmlns:xlink="http://www.w3.org/1999/xlink" x="0px" y="0px" viewBox="0 0 256 256" enable-background="new 0 0 256 256" xml:space="preserve">
<metadata> Svg Vector Icons : http://www.onlinewebfonts.com/icon </metadata>
<g><g><path fill="#000000" d="M128,246.3c-15.9,0-31.4-3.1-45.9-9.3C68,231,55.4,222.5,44.6,211.6c-10.8-10.8-19.3-23.5-25.3-37.6C13.1,159.5,10,144,10,128c0-16,3.1-31.5,9.3-46c5.9-14.1,14.4-26.7,25.3-37.6C55.4,33.5,68,25,82.1,19c14.5-6.2,30-9.3,45.9-9.3c15.9,0,31.4,3.1,45.9,9.3c14.1,5.9,26.7,14.5,37.5,25.3c10.8,10.8,19.3,23.5,25.3,37.6c6.1,14.6,9.2,30.1,9.2,46c0,16-3.1,31.4-9.3,46c-5.9,14.1-14.4,26.7-25.3,37.6C200.6,222.5,188,231,173.9,237C159.4,243.2,143.9,246.3,128,246.3z M128,26.6c-27,0-52.4,10.5-71.5,29.7c-9.3,9.3-16.6,20.2-21.7,32.2c-5.3,12.5-7.9,25.8-7.9,39.5c0,13.7,2.7,27,7.9,39.5c5.1,12.1,12.4,22.9,21.7,32.2c19.1,19.1,44.5,29.7,71.5,29.7c27,0,52.4-10.5,71.5-29.7c9.3-9.3,16.6-20.2,21.7-32.2c5.3-12.5,7.9-25.8,7.9-39.5c0-13.7-2.7-27-7.9-39.5c-5.1-12.1-12.4-22.9-21.7-32.2C180.4,37.1,155,26.6,128,26.6z M102.8,179.1c-4.7,0-8.4-3.8-8.4-8.4V85.4c0-4.7,3.8-8.4,8.4-8.4c4.7,0,8.4,3.8,8.4,8.4v85.3C111.3,175.3,107.5,179.1,102.8,179.1z M153.7,179.1c-4.7,0-8.4-3.8-8.4-8.4V85.4c0-4.7,3.8-8.4,8.4-8.4c4.7,0,8.4,3.8,8.4,8.4v85.3C162.1,175.3,158.3,179.1,153.7,179.1z"/></g></g>
</svg>