<?xml version="1.0" encoding="utf-8"?>
<!-- Svg Vector Icons : http://www.onlinewebfonts.com/icon -->
<!DOCTYPE svg PUBLIC "-//W3C//DTD SVG 1.1//EN" "http://www.w3.org/Graphics/SVG/1.1/DTD/svg11.dtd">
<svg version="1.1" xmlns="http://www.w3.org/2000/svg" xmlns:xlink="http://www.w3.org/1999/xlink" x="0px" y="0px" viewBox="0 0 256 256" enable-background="new 0 0 256 256" xml:space="preserve">
<metadata> Svg Vector Icons : http://www.onlinewebfonts.com/icon </metadata>
<g><g><g><path fill="#000000" d="M116.7,10.3C75.8,14.5,39.9,39.4,22,76c-4.3,8.7-6.3,14.2-8.6,23.1C10.6,110.2,10,115.5,10,128c0,12.5,0.6,17.8,3.4,28.9c2.3,8.9,4.3,14.4,8.6,23.1c11.4,23.3,30.6,42.6,54,54c8.5,4.1,15,6.6,23.6,8.7c10.7,2.7,16.1,3.3,28.4,3.3c12.5,0,17.8-0.6,28.9-3.4c8.9-2.3,14.4-4.3,23.1-8.5c23.3-11.5,42.6-30.7,54-54c4.3-8.7,6.3-14.2,8.6-23.1c2.8-11.1,3.4-16.4,3.4-28.9c0-12.3-0.6-17.7-3.3-28.4c-6.1-24.7-20.6-47.3-40.5-63.5c-9.1-7.4-22.7-15.2-33.7-19.2c-6-2.2-17.1-5-23.8-6C138.4,10,122.7,9.6,116.7,10.3z M143.2,25.7c45.3,7.1,80.2,42.1,87.2,87.6c1.1,7.3,1.1,22.2,0,29.6c-6.4,41.6-36.5,74.9-77,85.4c-8.9,2.3-14.8,3-25.4,3c-16.9,0-31-3.2-45.4-10.4c-31-15.5-51.5-43.4-57.1-77.8c-1.1-7.1-1.1-22.9,0-30c7.8-48.1,45.9-83.8,94.1-88.2C124.1,24.4,138.6,25,143.2,25.7z"/><path fill="#000000" d="M105.8,128v51.8l1.5-1.1c0.8-0.6,17.3-12.2,36.7-25.8c19.4-13.5,35.2-24.8,35.2-24.9c0-0.2-15.8-11.4-35.2-24.9c-19.4-13.6-35.9-25.2-36.7-25.8l-1.5-1.1V128L105.8,128z"/></g></g></g>
</svg>