<?xml version="1.0" encoding="UTF-8"?>
<svg xmlns="http://www.w3.org/2000/svg" xmlns:xlink="http://www.w3.org/1999/xlink"   viewBox="0 0 192 192" version="1.1">
<g>
<path style=" stroke:none;fill-rule:nonzero;fill-opacity:1;" fill="#000000" d="M 184.605469 71.238281 C 183.136719 57.441406 177.621094 44.261719 168.660156 33.265625 C 166.175781 30.199219 159.855469 24.070312 157 21.902344 C 153.242188 18.988281 148.429688 16.078125 144.523438 14.140625 C 119.585938 2.144531 91.019531 5.160156 68.875 22.179688 C 65.957031 24.363281 59.675781 30.609375 57.285156 33.617188 C 36.515625 59.558594 35.882812 95.484375 55.765625 121.824219 L 58.703125 125.714844 L 33.734375 150.84375 C 6.671875 178.15625 7.941406 176.652344 8.550781 179.875 C 8.855469 181.523438 11.113281 183.691406 12.6875 183.988281 C 15.839844 184.578125 14.417969 185.78125 41.558594 158.621094 L 66.527344 133.492188 L 70.4375 136.40625 C 96.898438 156.121094 132.898438 155.257812 158.632812 134.324219 C 161.699219 131.839844 167.828125 125.519531 169.996094 122.664062 C 181.347656 107.703125 186.539062 89.460938 184.609375 71.242188 Z M 173.476562 86.199219 C 172.597656 93.402344 170.816406 99.332031 167.613281 105.644531 C 152.707031 135.691406 116.148438 148.109375 86.324219 133.277344 C 65.515625 122.84375 52.398438 101.886719 52.328125 78.933594 C 52.265625 58.683594 62.476562 39.601562 79.542969 28.148438 C 101.320312 13.453125 130.800781 14.859375 151.328125 31.445312 C 153.808594 33.460938 158.777344 38.472656 160.734375 40.941406 C 170.75 53.359375 175.527344 70.445312 173.476562 86.199219 Z M 173.476562 86.199219 "/>
</g>
</svg>
