<?xml version="1.0" encoding="UTF-8"?>
<svg xmlns="http://www.w3.org/2000/svg" xmlns:xlink="http://www.w3.org/1999/xlink"   viewBox="0 0 192 192" version="1.1">
<g>
<path style=" stroke:none;fill-rule:nonzero;fill-opacity:1;" fill="#000000" d="M 170.398438 148.871094 C 175.796875 147.597656 180.523438 143.847656 183 138.820312 L 184.5 135.820312 L 184.5 131.546875 C 184.5 127.796875 184.425781 126.972656 183.601562 125.023438 C 183.078125 123.824219 182.175781 122.023438 181.5 121.125 C 180.824219 120.226562 162.601562 102.601562 140.925781 81.976562 L 101.625 44.476562 L 98.773438 43.578125 C 95.324219 42.453125 93.449219 42.601562 91.046875 44.027344 C 88.648438 45.453125 11.621094 119.628906 10.121094 121.878906 C 8.246094 124.804688 7.496094 127.578125 7.496094 131.253906 C 7.496094 136.578125 9.144531 140.253906 13.046875 144.078125 C 19.121094 149.929688 28.722656 150.828125 35.847656 146.402344 C 36.824219 145.800781 49.421875 133.878906 63.898438 119.925781 C 92.773438 92.101562 92.25 92.550781 95.921875 93 C 100.421875 93.449219 99.445312 92.625 128.097656 120.074219 C 142.496094 133.949219 155.171875 145.800781 156.148438 146.398438 C 160.046875 148.875 165.898438 149.847656 170.398438 148.875 Z M 170.398438 148.871094 "/>
</g>
</svg>
