<?xml version="1.0" encoding="UTF-8"?>
<svg xmlns="http://www.w3.org/2000/svg" xmlns:xlink="http://www.w3.org/1999/xlink"   viewBox="0 0 192 192" version="1.1">
<g>
<path style="fill-rule:nonzero;fill-opacity:1;stroke-width:5;stroke-linecap:butt;stroke-linejoin:miter;stroke:rgb(0%,0%,0%);stroke-opacity:1;stroke-miterlimit:4;" fill="#ffffff" d="M 242.5 130.989583 C 242.5 195.604167 190.786458 247.989583 127 247.989583 C 63.213542 247.989583 11.5 195.604167 11.5 130.989583 C 11.5 66.369792 63.213542 13.989583 127 13.989583 C 190.786458 13.989583 242.5 66.369792 242.5 130.989583 " transform="matrix(0.75,0,0,0.75,0,0)"/>
<path style="fill-rule:nonzero;fill-opacity:1;stroke-width:1;stroke-linecap:butt;stroke-linejoin:miter;stroke:rgb(0%,0%,0%);stroke-opacity:1;stroke-miterlimit:4;" fill="#000000" d="M 124.098958 42.744792 C 119.302083 43.75 114.5 46.041667 110.270833 49.265625 C 107.302083 51.484375 102.567708 56.932292 100.546875 60.515625 C 91.203125 76.5625 93.223958 97.057292 105.536458 110.739583 C 112.166667 118.119792 120.817708 122.130208 130.03125 122.203125 C 153.583333 122.276042 170.880208 95.90625 163.9375 70.614583 C 161.916667 63.380208 158.005208 56.786458 152.828125 51.84375 C 148.28125 47.546875 143.989583 45.036458 138.182292 43.317708 C 134.645833 42.3125 127.703125 42.026042 124.104167 42.744792 Z M 135.463542 48.046875 C 138.807292 48.692708 141.208333 49.625 144.302083 51.34375 C 152.067708 55.713542 157.625 63.666667 159.895833 73.484375 C 160.588542 76.421875 160.651042 77.427083 160.651042 82.083333 C 160.651042 85.807292 160.526042 88.03125 160.208333 89.677083 C 158.125 100.135417 152.505208 108.447917 144.421875 113.177083 C 139.494792 116.041667 135.078125 117.046875 128.635417 116.833333 C 122.260417 116.619792 117.776042 114.96875 112.723958 111.171875 C 100.854167 102.145833 96.182292 84.520833 101.546875 69.041667 C 106.786458 53.994792 120.927083 45.255208 135.453125 48.046875 Z M 135.463542 48.046875 " transform="matrix(0.75,0,0,0.75,0,0)"/>
<path style="fill-rule:nonzero;fill-opacity:1;stroke-width:1;stroke-linecap:butt;stroke-linejoin:miter;stroke:rgb(0%,0%,0%);stroke-opacity:1;stroke-miterlimit:4;" fill="#000000" d="M 121.005208 137.03125 C 92.65625 139.46875 68.541667 152.291667 57.744792 170.635417 C 54.401042 176.296875 52.755208 181.526042 52.1875 188.046875 L 52 190.484375 L 56.677083 190.484375 L 56.864583 188.119792 C 58.0625 174.364583 67.598958 161.682292 83.067708 153.229167 C 93.104167 147.713542 104.09375 144.34375 118.109375 142.625 C 123.286458 141.979167 138.125 142.052083 143.552083 142.770833 C 161.609375 145.135417 176.822917 151.296875 187.682292 160.541667 L 190.333333 162.833333 L 191.723958 161.041667 C 192.479167 160.109375 193.114583 159.109375 193.114583 158.890625 C 193.114583 158.677083 192.104167 157.598958 190.90625 156.671875 C 179.541667 147.140625 163.255208 140.265625 146.270833 137.901042 C 138.255208 136.682292 128.401042 136.395833 121.015625 137.041667 Z M 121.005208 137.03125 " transform="matrix(0.75,0,0,0.75,0,0)"/>
<path style="fill-rule:nonzero;fill-opacity:1;stroke-width:1;stroke-linecap:butt;stroke-linejoin:miter;stroke:rgb(0%,0%,0%);stroke-opacity:1;stroke-miterlimit:4;" fill="#000000" d="M 179.786458 173.140625 L 179.786458 182.526042 L 163.244792 182.526042 L 163.244792 187.828125 L 179.786458 187.828125 L 179.786458 206.598958 L 184.463542 206.598958 L 184.463542 187.828125 L 201.005208 187.828125 L 201.005208 182.526042 L 184.463542 182.526042 L 184.463542 163.755208 L 179.786458 163.755208 Z M 179.786458 173.140625 " transform="matrix(0.75,0,0,0.75,0,0)"/>
</g>
</svg>
